<svg xmlns="http://www.w3.org/2000/svg" viewBox="0 0 24 24"><title>8.Pin</title><g id="_8.Pin" data-name="8.Pin"><path d="M13.376,24H10.624l-.282-.248C10,23.455,2,16.38,2,10a10,10,0,0,1,20,0c0,6.38-8,13.455-8.342,13.752Zm-1.99-2h1.227C13.979,20.735,20,14.877,20,10A8,8,0,0,0,4,10C4,14.886,10.021,20.737,11.386,22Z"/><polygon points="17.293 11.707 12 6.414 6.707 11.707 5.293 10.293 12 3.586 18.707 10.293 17.293 11.707"/><polygon points="14.414 16 9.586 16 8 14.414 8 8 10 8 10 13.586 10.414 14 13.586 14 14 13.586 14 8 16 8 16 14.414 14.414 16"/></g></svg>